<?xml version="1.0" standalone="no"?>
<!DOCTYPE svg PUBLIC "-//W3C//DTD SVG 20010904//EN"
 "http://www.w3.org/TR/2001/REC-SVG-20010904/DTD/svg10.dtd">
<svg version="1.0" xmlns="http://www.w3.org/2000/svg"
 width="1232.000000pt" height="1232.000000pt" viewBox="0 0 1232.000000 1232.000000"
 preserveAspectRatio="xMidYMid meet">
<metadata>
Created by potrace 1.11, written by Peter Selinger 2001-2013
</metadata>
<g transform="translate(0.000000,1232.000000) scale(0.100000,-0.100000)"
fill="#000000" stroke="none">
<path d="M9034 8791 c-8 -18 -14 -38 -14 -43 0 -6 -6 -24 -14 -41 -8 -18 -32
-84 -53 -147 -21 -63 -42 -118 -48 -122 -5 -4 -7 -8 -4 -8 4 0 -9 -44 -28 -97
-19 -54 -36 -102 -37 -108 -1 -5 -4 -14 -7 -20 -4 -5 -12 -28 -18 -50 -7 -22
-16 -49 -21 -60 -5 -11 -34 -94 -65 -185 -31 -91 -63 -183 -71 -205 -8 -22
-15 -44 -15 -50 0 -5 -4 -14 -9 -20 -4 -5 -15 -32 -23 -60 -14 -46 -96 -279
-110 -315 -4 -8 -22 -60 -41 -115 -51 -150 -182 -524 -201 -575 -9 -25 -18
-49 -19 -55 -14 -55 -20 -72 -28 -81 -5 -7 -11 -20 -13 -30 -2 -11 -22 -71
-44 -134 -76 -220 -131 -375 -138 -390 -3 -8 -7 -21 -9 -27 -2 -11 -22 -68
-42 -123 -3 -8 -6 -17 -7 -20 -1 -3 -4 -12 -8 -20 -9 -24 -75 -213 -118 -340
-21 -63 -43 -124 -48 -135 -9 -18 -21 -55 -27 -80 -1 -5 -14 -41 -28 -80 -71
-199 -118 -332 -121 -347 -2 -9 -9 -26 -15 -38 -6 -12 -13 -30 -15 -40 -2 -10
-28 -87 -58 -171 -30 -85 -74 -208 -97 -274 -23 -66 -64 -182 -91 -258 -27
-76 -49 -144 -49 -152 0 -8 -5 -15 -12 -15 -6 0 -9 -3 -6 -6 6 -5 -42 -150
-57 -174 -7 -12 -24 -12 327 -12 158 0 292 3 297 7 6 3 15 25 22 48 6 23 17
56 24 72 7 17 30 80 50 140 20 61 41 119 45 130 12 27 90 252 90 258 0 3 5 18
11 34 6 15 10 29 10 30 0 2 8 23 19 48 11 25 20 47 20 50 0 3 3 10 5 17 32 92
127 365 129 373 2 6 6 17 9 25 9 22 55 155 83 240 14 41 29 84 35 95 10 22 47
128 55 160 3 11 8 27 12 35 3 8 6 17 7 20 1 3 7 18 13 33 7 15 15 40 18 55 4
15 13 39 20 53 7 15 15 37 18 50 5 21 67 201 83 239 3 8 23 65 44 125 20 61
60 175 89 255 28 80 59 170 70 200 10 30 44 127 75 215 31 88 63 178 70 200
21 64 135 388 142 405 7 18 123 350 127 365 3 10 10 29 29 80 7 17 12 32 13
35 0 3 6 18 12 33 7 16 12 31 12 35 0 4 25 77 56 162 31 85 57 160 59 165 1 6
5 17 8 25 3 8 23 67 45 130 53 153 99 284 161 459 28 79 49 147 46 149 -2 3
-142 5 -311 6 l-306 1 -14 -34z"/>
<path d="M908 7044 l-866 -867 849 -848 849 -849 107 108 c59 59 151 151 205
204 l98 98 -640 640 c-352 352 -640 643 -640 647 0 5 296 304 657 665 l657
657 -92 94 c-51 52 -92 93 -92 91 0 -2 -17 15 -37 38 -21 24 -42 46 -48 50 -5
4 -39 36 -75 72 l-66 66 -866 -866z"/>
<path d="M10421 7708 c-110 -110 -201 -204 -201 -208 0 -4 288 -295 640 -647
l640 -640 -662 -661 -661 -662 200 -200 c110 -110 204 -200 210 -200 12 0
1723 1710 1723 1723 0 5 -380 389 -844 853 l-843 844 -202 -202z"/>
<path d="M3383 7492 c-25 -4 -25 -5 -24 -136 0 -32 2 -60 5 -63 3 -3 1 -15 -4
-28 -5 -13 -6 -26 -3 -29 8 -7 8 -80 1 -92 -3 -5 -2 -18 1 -28 4 -11 4 -39 1
-63 -4 -23 -4 -43 -1 -43 3 0 6 -18 6 -40 0 -22 -2 -40 -5 -40 -6 0 -4 -90 3
-96 3 -3 1 -21 -3 -40 -4 -18 -5 -34 -1 -34 3 0 5 -24 3 -52 -2 -29 -3 -60 -3
-68 0 -8 0 -35 0 -60 0 -25 0 -54 1 -65 1 -11 1 -27 1 -35 0 -8 -1 -36 -1 -63
-1 -26 2 -52 5 -57 3 -6 2 -10 -4 -10 -5 0 -6 -11 -2 -27 4 -14 4 -48 1 -73
-3 -26 -3 -56 0 -66 4 -10 4 -32 0 -48 -3 -17 -3 -48 1 -68 3 -22 2 -38 -3
-38 -5 0 -6 -5 -3 -10 4 -6 6 -43 6 -83 -1 -68 -1 -80 -1 -124 0 -10 1 -54 1
-98 -1 -44 0 -98 1 -121 1 -22 -1 -44 -4 -50 -3 -5 -2 -18 1 -28 4 -11 4 -39
1 -63 -4 -23 -4 -43 -1 -43 3 0 6 -18 6 -40 0 -22 -3 -40 -6 -40 -3 0 -3 -20
1 -45 4 -25 4 -45 -1 -45 -4 0 -3 -15 1 -34 4 -19 4 -39 0 -46 -4 -6 -5 -24
-3 -38 2 -15 3 -38 3 -52 0 -14 0 -34 0 -45 0 -11 0 -29 0 -40 -1 -25 -1 -34
2 -65 l3 -25 280 1 280 0 0 751 c0 413 3 754 6 757 3 3 14 -12 25 -34 10 -22
22 -40 27 -40 4 0 7 -5 7 -11 0 -6 12 -29 28 -52 15 -23 32 -51 39 -62 7 -11
40 -66 75 -123 35 -57 68 -111 73 -120 6 -9 74 -121 151 -247 78 -127 160
-261 183 -300 23 -38 66 -108 95 -155 l52 -85 135 -3 134 -2 50 82 c27 46 55
92 61 103 6 11 51 88 101 170 50 83 99 165 109 182 11 18 55 92 99 165 44 73
84 142 91 153 6 11 29 50 52 88 23 37 42 72 42 77 0 6 4 10 9 10 5 0 12 8 15
18 3 9 12 26 19 37 7 11 35 58 62 105 l50 85 5 -40 c3 -22 2 -41 -2 -43 -4 -2
-5 -9 -2 -17 3 -7 7 -334 8 -726 2 -393 4 -716 5 -719 1 -4 506 -5 547 -1 8 1
10 356 9 1289 -2 708 -3 1292 -4 1297 -1 6 -85 9 -234 9 -289 -2 -266 0 -277
-26 -6 -13 -21 -41 -35 -63 -14 -22 -34 -56 -45 -75 -21 -37 -31 -52 -66 -110
-20 -33 -137 -229 -159 -268 -5 -9 -41 -70 -80 -135 -38 -64 -75 -125 -80
-135 -13 -22 -114 -194 -139 -235 -11 -18 -24 -41 -30 -52 -7 -11 -27 -46 -46
-78 -19 -33 -46 -78 -59 -100 -13 -23 -27 -44 -30 -47 -3 -3 -14 -21 -25 -40
-33 -61 -58 -104 -76 -130 -10 -14 -27 -44 -39 -67 -12 -24 -25 -43 -30 -43
-8 0 -253 399 -343 560 -34 60 -43 75 -49 80 -3 3 -39 61 -79 130 -41 69 -78
127 -82 128 -4 2 -8 8 -8 13 0 5 -18 38 -40 74 -22 36 -40 67 -40 69 0 3 -18
32 -40 65 -22 33 -40 62 -40 65 0 3 -26 47 -58 98 -32 51 -61 100 -64 108 -4
8 -35 60 -70 115 l-63 99 -225 1 c-124 0 -235 -1 -247 -3z"/>
</g>
</svg>
